<svg xmlns="http://www.w3.org/2000/svg" width="21" height="22" viewBox="0 0 21 22">
    <g fill="#FFF" fill-rule="nonzero">
        <path d="M15.99 7.359l4.754-4.812L18.995.811l-4.483 4.562-4.04 3.803-.582-.548L6.409 5.35 1.949.81.201 2.548 4.955 7.36l-.01.01.447.43 4.85 4.91.104.105.126-.122.127.122 4.987-5.047.304-.292.11-.106z"/>
        <path d="M15.99 16.359l4.754-4.812-1.749-1.736-4.483 4.562-4.04 3.803-.582-.548-3.481-3.278-4.46-4.54-1.748 1.737 4.754 4.812-.01.01.447.43 4.85 4.91.104.105.126-.122.127.122 4.987-5.047.304-.292.11-.106z"/>
    </g>
</svg>
